<svg xmlns="http://www.w3.org/2000/svg" xmlns:xlink="http://www.w3.org/1999/xlink" width="40" zoomAndPan="magnify" viewBox="0 0 30 30.000001" height="40" preserveAspectRatio="xMidYMid meet" version="1.0"><defs><clipPath id="3af1d50e74"><path d="M 0.484375 0 L 29.515625 0 L 29.515625 29.03125 L 0.484375 29.03125 Z M 0.484375 0 " clip-rule="nonzero"/></clipPath><clipPath id="7533d79835"><path d="M 4 1 L 23 1 L 23 28 L 4 28 Z M 4 1 " clip-rule="nonzero"/></clipPath><clipPath id="8598703371"><path d="M 24.679688 25.035156 L 21.25 27.71875 L 2.46875 3.707031 L 5.898438 1.023438 Z M 24.679688 25.035156 " clip-rule="nonzero"/></clipPath><clipPath id="1d5298fe18"><path d="M 24.679688 25.035156 L 21.25 27.71875 L 2.46875 3.707031 L 5.898438 1.023438 Z M 24.679688 25.035156 " clip-rule="nonzero"/></clipPath><clipPath id="5b8bf06d41"><path d="M 24.679688 25.035156 L 21.25 27.71875 L 2.46875 3.707031 L 5.898438 1.023438 Z M 24.679688 25.035156 " clip-rule="nonzero"/></clipPath><clipPath id="3878f5ab75"><path d="M 24.679688 25.035156 L 21.25 27.71875 L 2.460938 3.707031 L 5.894531 1.019531 Z M 24.679688 25.035156 " clip-rule="nonzero"/></clipPath><clipPath id="22cf211bee"><path d="M 24.679688 25.035156 L 21.253906 27.714844 L 2.472656 3.707031 L 5.898438 1.027344 Z M 24.679688 25.035156 " clip-rule="nonzero"/></clipPath></defs><g clip-path="url(#3af1d50e74)"><path fill="#ffffff" d="M 0.484375 0 L 29.515625 0 L 29.515625 29.03125 L 0.484375 29.03125 Z M 0.484375 0 " fill-opacity="1" fill-rule="nonzero"/><path fill="#ffffff" d="M 0.484375 0 L 29.515625 0 L 29.515625 29.03125 L 0.484375 29.03125 Z M 0.484375 0 " fill-opacity="1" fill-rule="nonzero"/></g><g clip-path="url(#7533d79835)"><g clip-path="url(#8598703371)"><g clip-path="url(#1d5298fe18)"><g clip-path="url(#5b8bf06d41)"><g clip-path="url(#3878f5ab75)"><g clip-path="url(#22cf211bee)"><path fill="#11100e" d="M 5.796875 2.242188 C 5.792969 2.234375 5.792969 2.226562 5.789062 2.21875 C 5.785156 2.230469 5.78125 2.238281 5.777344 2.246094 C 5.785156 2.246094 5.789062 2.242188 5.796875 2.242188 Z M 7.097656 6.304688 L 7.078125 6.292969 L 7.085938 6.316406 Z M 8.351562 5.328125 C 8.351562 5.320312 8.355469 5.308594 8.351562 5.304688 C 8.34375 5.292969 8.328125 5.28125 8.316406 5.273438 C 8.316406 5.28125 8.3125 5.289062 8.316406 5.296875 C 8.328125 5.308594 8.339844 5.316406 8.351562 5.328125 Z M 6.824219 6.558594 C 6.832031 6.554688 6.835938 6.546875 6.84375 6.542969 C 6.816406 6.511719 6.785156 6.480469 6.722656 6.414062 C 6.753906 6.480469 6.757812 6.496094 6.769531 6.507812 C 6.785156 6.527344 6.804688 6.542969 6.824219 6.558594 Z M 7.808594 4.261719 C 7.8125 4.257812 7.816406 4.257812 7.816406 4.253906 C 7.773438 4.199219 7.730469 4.148438 7.6875 4.09375 C 7.6875 4.09375 7.683594 4.097656 7.683594 4.097656 C 7.726562 4.152344 7.769531 4.207031 7.808594 4.261719 Z M 6.632812 3.890625 C 6.660156 3.808594 6.660156 3.808594 6.515625 3.742188 C 6.550781 3.792969 6.589844 3.839844 6.632812 3.890625 Z M 7.113281 4.402344 C 7.03125 4.261719 6.945312 4.121094 6.800781 4.03125 C 6.875 4.179688 6.980469 4.304688 7.113281 4.402344 Z M 7.863281 4 C 7.855469 4.007812 7.847656 4.011719 7.839844 4.019531 C 7.886719 4.078125 7.933594 4.136719 7.976562 4.199219 C 8.019531 4.25 8.054688 4.304688 8.09375 4.359375 C 8.132812 4.40625 8.148438 4.488281 8.246094 4.488281 C 8.117188 4.320312 7.988281 4.160156 7.863281 4 Z M 5.386719 4.566406 C 5.367188 4.839844 5.394531 5.113281 5.589844 5.332031 C 5.523438 5.074219 5.453125 4.820312 5.386719 4.566406 Z M 5.964844 2.671875 C 5.988281 2.859375 6.101562 3 6.207031 3.144531 C 6.273438 3.234375 6.347656 3.320312 6.480469 3.332031 C 6.542969 3.335938 6.597656 3.394531 6.652344 3.433594 C 6.839844 3.582031 7.023438 3.734375 7.214844 3.878906 C 7.246094 3.902344 7.28125 3.949219 7.351562 3.898438 C 7.273438 3.796875 7.1875 3.707031 7.121094 3.601562 C 7.03125 3.457031 6.910156 3.359375 6.761719 3.285156 C 6.453125 3.132812 6.199219 2.917969 5.964844 2.671875 Z M 11.964844 10.796875 C 11.988281 10.691406 11.914062 10.621094 11.859375 10.546875 C 11.683594 10.304688 11.628906 10.292969 11.351562 10.425781 C 11.019531 10.585938 10.753906 10.832031 10.496094 11.089844 C 10.347656 11.238281 10.246094 11.410156 10.160156 11.613281 C 10.273438 11.75 10.3125 11.941406 10.492188 12.039062 C 10.640625 11.875 10.773438 11.703125 10.925781 11.558594 C 11.074219 11.414062 11.242188 11.289062 11.40625 11.167969 C 11.582031 11.042969 11.765625 10.929688 11.964844 10.796875 Z M 11.417969 10.207031 C 11.355469 10.125 11.308594 10.054688 11.257812 9.984375 C 11.074219 9.75 10.890625 9.519531 10.710938 9.285156 C 10.355469 8.808594 10 8.332031 9.644531 7.859375 C 9.507812 7.675781 9.375 7.488281 9.230469 7.308594 C 9.097656 7.148438 8.953125 6.992188 8.808594 6.839844 C 8.757812 6.789062 8.683594 6.757812 8.621094 6.722656 C 8.242188 6.910156 7.960938 7.171875 7.789062 7.5625 C 8.035156 7.980469 8.34375 8.359375 8.601562 8.773438 C 8.867188 9.195312 9.132812 9.617188 9.390625 10.042969 C 9.640625 10.457031 9.882812 10.878906 10.132812 11.304688 C 10.53125 10.820312 10.765625 10.605469 11.417969 10.207031 Z M 21.980469 26.863281 C 21.96875 26.832031 21.96875 26.8125 21.957031 26.796875 C 21.722656 26.378906 21.484375 25.964844 21.246094 25.546875 C 21.066406 25.242188 20.882812 24.9375 20.703125 24.632812 C 20.535156 24.355469 20.363281 24.078125 20.191406 23.800781 C 20.101562 23.652344 20.011719 23.507812 19.921875 23.359375 C 19.679688 22.957031 19.390625 22.585938 19.167969 22.171875 C 19.132812 22.105469 19.097656 22.035156 19.0625 21.96875 C 18.832031 21.558594 18.601562 21.152344 18.375 20.738281 C 18.214844 20.445312 18.0625 20.148438 17.902344 19.851562 C 17.726562 19.53125 17.546875 19.21875 17.378906 18.894531 C 17.144531 18.433594 16.921875 17.964844 16.691406 17.5 C 16.492188 17.105469 16.296875 16.710938 16.082031 16.324219 C 15.816406 15.847656 15.542969 15.378906 15.257812 14.910156 C 14.941406 14.386719 14.625 13.859375 14.277344 13.355469 C 13.949219 12.882812 13.589844 12.433594 13.226562 11.988281 C 12.949219 11.648438 12.632812 11.339844 12.265625 11.085938 C 12.117188 10.988281 11.996094 10.972656 11.835938 11.058594 C 11.445312 11.277344 11.097656 11.550781 10.800781 11.886719 C 10.75 11.941406 10.714844 12.015625 10.671875 12.082031 C 10.769531 12.324219 10.859375 12.554688 10.957031 12.78125 C 11.394531 13.789062 11.9375 14.738281 12.542969 15.648438 C 12.691406 15.875 12.839844 16.097656 12.988281 16.320312 C 13.164062 16.59375 13.332031 16.875 13.519531 17.136719 C 13.941406 17.730469 14.367188 18.324219 14.804688 18.90625 C 15.339844 19.621094 15.890625 20.324219 16.433594 21.03125 C 16.636719 21.296875 16.835938 21.566406 17.039062 21.828125 C 17.277344 22.132812 17.515625 22.433594 17.753906 22.730469 C 18.222656 23.3125 18.699219 23.890625 19.160156 24.480469 C 19.519531 24.941406 19.867188 25.410156 20.207031 25.886719 C 20.488281 26.277344 20.75 26.675781 21.023438 27.070312 C 21.0625 27.132812 21.113281 27.191406 21.15625 27.242188 C 21.503906 27.28125 21.785156 27.183594 21.980469 26.863281 Z M 6.171875 3.488281 C 6.089844 3.386719 6.121094 3.214844 5.945312 3.136719 C 6.019531 3.28125 6.015625 3.441406 6.183594 3.492188 C 6.167969 3.515625 6.132812 3.546875 6.140625 3.566406 C 6.207031 3.773438 6.289062 3.984375 6.4375 4.148438 C 6.769531 4.503906 7.125 4.839844 7.433594 5.214844 C 7.46875 5.253906 7.503906 5.308594 7.597656 5.285156 C 7.535156 5.203125 7.480469 5.125 7.417969 5.054688 C 7.25 4.871094 7.082031 4.6875 6.910156 4.507812 C 6.621094 4.199219 6.363281 3.871094 6.171875 3.488281 Z M 6.246094 4.753906 C 6.230469 4.734375 6.214844 4.714844 6.199219 4.695312 C 6.195312 4.6875 6.183594 4.6875 6.175781 4.679688 C 6.183594 4.6875 6.191406 4.691406 6.195312 4.699219 C 6.210938 4.71875 6.226562 4.738281 6.242188 4.757812 C 6.234375 4.824219 6.25 4.886719 6.285156 4.945312 C 6.457031 5.242188 6.535156 5.339844 6.886719 5.648438 C 6.792969 5.527344 6.679688 5.40625 6.59375 5.269531 C 6.480469 5.097656 6.320312 4.957031 6.246094 4.753906 Z M 8.007812 5.261719 C 8.039062 5.308594 8.042969 5.378906 8.128906 5.382812 C 8.085938 5.339844 8.039062 5.300781 7.996094 5.257812 C 8 5.238281 8.011719 5.214844 8.007812 5.203125 C 7.917969 5.007812 7.800781 4.835938 7.632812 4.699219 C 7.671875 4.816406 7.765625 4.902344 7.832031 5 C 7.890625 5.085938 7.945312 5.171875 8.007812 5.261719 Z M 5.683594 2.855469 C 5.722656 2.957031 5.699219 3.085938 5.800781 3.160156 C 5.753906 3.246094 5.789062 3.324219 5.8125 3.40625 C 5.875 3.636719 5.949219 3.863281 6.070312 4.074219 C 6.234375 4.363281 6.402344 4.652344 6.578125 4.933594 C 6.632812 5.023438 6.714844 5.09375 6.785156 5.167969 C 6.859375 5.242188 6.917969 5.335938 7.058594 5.382812 C 6.957031 5.226562 6.875 5.097656 6.789062 4.972656 C 6.617188 4.730469 6.441406 4.496094 6.273438 4.25 C 6.203125 4.148438 6.132812 4.035156 6.109375 3.917969 C 6.050781 3.644531 5.921875 3.402344 5.792969 3.160156 C 5.804688 3.035156 5.785156 2.925781 5.671875 2.851562 C 5.746094 2.699219 5.742188 2.632812 5.632812 2.519531 C 5.582031 2.664062 5.582031 2.664062 5.683594 2.855469 Z M 5.554688 3.835938 C 5.566406 3.828125 5.589844 3.820312 5.59375 3.808594 C 5.597656 3.792969 5.585938 3.773438 5.582031 3.757812 C 5.578125 3.753906 5.566406 3.75 5.558594 3.746094 C 5.554688 3.769531 5.550781 3.792969 5.550781 3.816406 C 5.550781 3.824219 5.558594 3.832031 5.5625 3.835938 C 5.574219 3.921875 5.589844 4.007812 5.601562 4.089844 C 5.59375 4.15625 5.625 4.195312 5.671875 4.226562 C 5.664062 4.242188 5.640625 4.257812 5.644531 4.273438 C 5.664062 4.566406 5.742188 4.839844 5.917969 5.078125 C 6.015625 5.207031 6.113281 5.335938 6.214844 5.464844 C 6.339844 5.621094 6.46875 5.773438 6.597656 5.925781 C 6.679688 6.019531 6.773438 6.097656 6.898438 6.136719 C 6.800781 6.011719 6.714844 5.882812 6.597656 5.773438 C 6.25 5.453125 5.972656 5.082031 5.820312 4.625 C 5.773438 4.488281 5.714844 4.359375 5.660156 4.226562 C 5.664062 4.167969 5.65625 4.113281 5.589844 4.089844 C 5.660156 3.980469 5.652344 3.941406 5.554688 3.835938 Z M 8.84375 6.535156 C 9.300781 7.011719 9.699219 7.527344 10.101562 8.039062 C 10.3125 8.308594 10.496094 8.605469 10.695312 8.882812 C 10.984375 9.28125 11.273438 9.675781 11.570312 10.0625 C 11.636719 10.148438 11.734375 10.226562 11.832031 10.277344 C 12.027344 10.378906 12.101562 10.539062 12.113281 10.746094 C 12.117188 10.773438 12.121094 10.800781 12.125 10.828125 C 12.195312 10.867188 12.261719 10.902344 12.328125 10.941406 C 12.738281 11.152344 13.046875 11.480469 13.34375 11.820312 C 13.816406 12.363281 14.273438 12.917969 14.652344 13.53125 C 14.960938 14.027344 15.261719 14.53125 15.5625 15.03125 C 15.6875 15.234375 15.816406 15.4375 15.9375 15.644531 C 16.171875 16.058594 16.421875 16.472656 16.636719 16.898438 C 16.921875 17.464844 17.175781 18.042969 17.457031 18.613281 C 17.621094 18.945312 17.8125 19.269531 17.988281 19.597656 C 18.1875 19.972656 18.382812 20.34375 18.589844 20.714844 C 18.929688 21.324219 19.265625 21.9375 19.621094 22.542969 C 19.792969 22.839844 20 23.117188 20.1875 23.40625 C 20.21875 23.453125 20.253906 23.503906 20.277344 23.554688 C 20.449219 23.910156 20.667969 24.234375 20.871094 24.570312 C 21.035156 24.839844 21.195312 25.117188 21.351562 25.386719 C 21.566406 25.753906 21.777344 26.117188 21.988281 26.480469 C 22.054688 26.597656 22.117188 26.71875 22.183594 26.84375 C 22.152344 26.902344 22.117188 26.957031 22.085938 27.019531 C 22.039062 27.109375 21.96875 27.167969 21.871094 27.207031 C 21.617188 27.3125 21.367188 27.425781 21.078125 27.429688 C 20.898438 27.265625 20.734375 27.082031 20.621094 26.855469 C 20.457031 26.527344 20.226562 26.242188 20.003906 25.953125 C 19.625 25.457031 19.253906 24.957031 18.878906 24.460938 C 18.832031 24.402344 18.78125 24.34375 18.734375 24.285156 C 18.308594 23.765625 17.882812 23.246094 17.460938 22.726562 C 17.394531 22.648438 17.339844 22.554688 17.273438 22.472656 C 16.988281 22.113281 16.699219 21.757812 16.417969 21.394531 C 16.039062 20.902344 15.664062 20.402344 15.289062 19.90625 C 15.25 19.855469 15.203125 19.804688 15.160156 19.753906 C 14.929688 19.472656 14.722656 19.175781 14.523438 18.871094 C 14.363281 18.621094 14.171875 18.394531 13.996094 18.152344 C 13.734375 17.800781 13.457031 17.453125 13.222656 17.082031 C 13.03125 16.777344 12.8125 16.484375 12.617188 16.179688 C 12.3125 15.703125 12.039062 15.210938 11.734375 14.734375 C 11.503906 14.367188 11.3125 13.980469 11.105469 13.605469 C 11.027344 13.464844 10.96875 13.3125 10.902344 13.160156 C 10.777344 12.863281 10.652344 12.5625 10.527344 12.261719 C 10.464844 12.238281 10.398438 12.222656 10.34375 12.1875 C 10.296875 12.15625 10.253906 12.109375 10.230469 12.058594 C 10.15625 11.914062 10.09375 11.765625 10.03125 11.617188 C 9.996094 11.535156 9.976562 11.449219 9.933594 11.375 C 9.539062 10.722656 9.136719 10.066406 8.734375 9.414062 C 8.578125 9.160156 8.421875 8.910156 8.265625 8.660156 C 8.207031 8.570312 8.140625 8.488281 8.078125 8.402344 C 7.941406 8.207031 7.804688 8.011719 7.671875 7.8125 C 7.628906 7.742188 7.578125 7.699219 7.5 7.671875 C 7.261719 7.589844 7.027344 7.503906 6.796875 7.410156 C 6.480469 7.277344 6.222656 7.0625 5.972656 6.835938 C 5.816406 6.695312 5.683594 6.53125 5.542969 6.375 C 5.496094 6.324219 5.457031 6.265625 5.429688 6.207031 C 5.203125 5.6875 5 5.160156 4.957031 4.582031 C 4.945312 4.429688 4.90625 4.277344 4.902344 4.125 C 4.898438 3.921875 4.898438 3.71875 4.945312 3.515625 C 4.988281 3.316406 5 3.113281 5.027344 2.910156 C 5.050781 2.746094 5.09375 2.59375 5.183594 2.445312 C 5.269531 2.304688 5.308594 2.136719 5.359375 1.980469 C 5.398438 1.863281 5.425781 1.742188 5.464844 1.597656 C 5.535156 1.726562 5.453125 1.847656 5.503906 1.972656 C 5.597656 1.875 5.582031 1.757812 5.625 1.664062 C 5.664062 1.574219 5.691406 1.480469 5.71875 1.386719 C 5.75 1.285156 5.769531 1.183594 5.882812 1.039062 C 5.8125 1.265625 5.886719 1.425781 5.851562 1.59375 C 5.839844 1.65625 5.859375 1.726562 5.882812 1.789062 C 5.929688 1.933594 5.992188 2.074219 6.042969 2.21875 C 6.1875 2.628906 6.519531 2.859375 6.867188 3.070312 C 7.203125 3.277344 7.542969 3.46875 7.863281 3.699219 C 8.160156 3.910156 8.394531 4.171875 8.5625 4.488281 C 8.746094 4.828125 8.882812 5.1875 8.90625 5.582031 C 8.921875 5.839844 8.925781 6.101562 8.871094 6.363281 C 8.859375 6.417969 8.851562 6.476562 8.84375 6.535156 " fill-opacity="1" fill-rule="nonzero"/></g></g></g></g></g></g></svg>