<svg xmlns="http://www.w3.org/2000/svg" xmlns:xlink="http://www.w3.org/1999/xlink" width="40" zoomAndPan="magnify" viewBox="0 0 30 30.000001" height="40" preserveAspectRatio="xMidYMid meet" version="1.0"><defs><clipPath id="96a12d89e3"><path d="M 2.175781 3 L 29 3 L 29 6.53125 L 2.175781 6.53125 Z M 2.175781 3 " clip-rule="nonzero"/></clipPath><clipPath id="9f0655b00b"><path d="M 26 3 L 29 3 L 29 6.53125 L 26 6.53125 Z M 26 3 " clip-rule="nonzero"/></clipPath><clipPath id="7d840e859d"><path d="M 1.597656 8.25 L 29 8.25 L 29 11.878906 L 1.597656 11.878906 Z M 1.597656 8.25 " clip-rule="nonzero"/></clipPath><clipPath id="a1943e55b6"><path d="M 26 9 L 29 9 L 29 11.878906 L 26 11.878906 Z M 26 9 " clip-rule="nonzero"/></clipPath><clipPath id="d2a87725f8"><path d="M 2.175781 14.515625 L 29 14.515625 L 29 18.871094 L 2.175781 18.871094 Z M 2.175781 14.515625 " clip-rule="nonzero"/></clipPath><clipPath id="2dc2b9c6ee"><path d="M 27 15 L 29.515625 15 L 29.515625 18.871094 L 27 18.871094 Z M 27 15 " clip-rule="nonzero"/></clipPath></defs><g clip-path="url(#96a12d89e3)"><path fill="#b1355c" d="M 2.464844 6.472656 C 4.054688 5.699219 5.910156 5.519531 7.667969 5.480469 C 9.566406 5.433594 11.457031 5.550781 13.34375 5.714844 C 15.25 5.882812 17.152344 6.089844 19.0625 6.21875 C 20.015625 6.277344 20.972656 6.3125 21.929688 6.320312 C 22.824219 6.324219 23.734375 6.328125 24.628906 6.226562 C 25.53125 6.125 26.433594 5.886719 27.125 5.300781 C 27.730469 4.789062 28.167969 4.007812 28 3.230469 C 27.929688 2.902344 27.390625 2.980469 27.390625 3.304688 C 27.394531 3.996094 27.109375 4.582031 26.542969 5.019531 C 25.90625 5.511719 25.050781 5.683594 24.257812 5.773438 C 22.453125 5.972656 20.613281 5.90625 18.804688 5.789062 C 15.132812 5.546875 11.46875 4.980469 7.777344 5.105469 C 5.898438 5.160156 3.996094 5.363281 2.359375 6.296875 C 2.238281 6.363281 2.34375 6.53125 2.464844 6.472656 Z M 2.464844 6.472656 " fill-opacity="1" fill-rule="nonzero"/></g><path fill="#b1355c" d="M 3.179688 5.34375 C 4.789062 4.789062 6.453125 4.65625 8.15625 4.648438 C 8.246094 4.648438 8.28125 4.5 8.175781 4.488281 C 6.476562 4.25 4.703125 4.632812 3.140625 5.277344 C 3.109375 5.292969 3.136719 5.359375 3.179688 5.34375 Z M 3.179688 5.34375 " fill-opacity="1" fill-rule="nonzero"/><g clip-path="url(#9f0655b00b)"><path fill="#b1355c" d="M 26.492188 6.230469 C 27.113281 6.152344 27.6875 5.871094 28.121094 5.449219 C 28.339844 5.234375 28.53125 4.992188 28.660156 4.722656 C 28.769531 4.507812 28.96875 4.128906 28.804688 3.910156 C 28.730469 3.808594 28.601562 3.792969 28.503906 3.875 C 28.320312 4.019531 28.347656 4.355469 28.269531 4.570312 C 28.183594 4.8125 28.058594 5.042969 27.902344 5.25 C 27.550781 5.703125 27.050781 6.035156 26.476562 6.179688 C 26.4375 6.1875 26.457031 6.238281 26.492188 6.230469 Z M 26.492188 6.230469 " fill-opacity="1" fill-rule="nonzero"/></g><g clip-path="url(#7d840e859d)"><path fill="#1e3148" d="M 1.921875 11.816406 C 3.550781 11.046875 5.449219 10.867188 7.253906 10.828125 C 9.199219 10.78125 11.136719 10.898438 13.070312 11.0625 C 15.027344 11.226562 16.976562 11.4375 18.9375 11.5625 C 19.910156 11.625 20.890625 11.660156 21.871094 11.664062 C 22.792969 11.671875 23.722656 11.675781 24.640625 11.574219 C 25.566406 11.472656 26.492188 11.234375 27.199219 10.648438 C 27.820312 10.136719 28.269531 9.351562 28.097656 8.574219 C 28.023438 8.25 27.472656 8.328125 27.472656 8.652344 C 27.476562 9.34375 27.183594 9.925781 26.601562 10.363281 C 25.949219 10.859375 25.074219 11.03125 24.257812 11.121094 C 22.410156 11.320312 20.527344 11.253906 18.671875 11.136719 C 14.90625 10.894531 11.148438 10.328125 7.367188 10.449219 C 5.4375 10.507812 3.488281 10.710938 1.8125 11.644531 C 1.6875 11.710938 1.792969 11.878906 1.921875 11.816406 Z M 1.921875 11.816406 " fill-opacity="1" fill-rule="nonzero"/></g><path fill="#1e3148" d="M 2.652344 10.691406 C 4.304688 10.136719 6.007812 10.003906 7.753906 9.992188 C 7.847656 9.992188 7.882812 9.847656 7.777344 9.835938 C 6.03125 9.597656 4.214844 9.976562 2.613281 10.625 C 2.582031 10.640625 2.609375 10.703125 2.652344 10.691406 Z M 2.652344 10.691406 " fill-opacity="1" fill-rule="nonzero"/><g clip-path="url(#a1943e55b6)"><path fill="#1e3148" d="M 26.550781 11.578125 C 27.1875 11.496094 27.777344 11.21875 28.21875 10.796875 C 28.445312 10.582031 28.640625 10.339844 28.773438 10.070312 C 28.882812 9.855469 29.089844 9.476562 28.921875 9.257812 C 28.84375 9.15625 28.710938 9.140625 28.613281 9.222656 C 28.425781 9.367188 28.453125 9.703125 28.375 9.917969 C 28.285156 10.160156 28.160156 10.390625 27.996094 10.597656 C 27.636719 11.050781 27.121094 11.382812 26.535156 11.527344 C 26.496094 11.535156 26.511719 11.585938 26.550781 11.578125 Z M 26.550781 11.578125 " fill-opacity="1" fill-rule="nonzero"/></g><g clip-path="url(#d2a87725f8)"><path fill="#d27624" d="M 2.476562 18.796875 C 4.109375 17.871094 6.011719 17.65625 7.820312 17.609375 C 9.765625 17.554688 11.707031 17.695312 13.644531 17.890625 C 15.601562 18.089844 17.554688 18.339844 19.519531 18.492188 C 20.496094 18.566406 21.476562 18.609375 22.460938 18.613281 C 23.382812 18.621094 24.3125 18.628906 25.234375 18.503906 C 26.160156 18.382812 27.085938 18.097656 27.796875 17.394531 C 28.417969 16.777344 28.867188 15.839844 28.695312 14.90625 C 28.625 14.515625 28.070312 14.609375 28.070312 14.996094 C 28.074219 15.828125 27.78125 16.527344 27.199219 17.054688 C 26.542969 17.644531 25.667969 17.851562 24.851562 17.960938 C 23 18.199219 21.113281 18.121094 19.253906 17.980469 C 15.480469 17.6875 11.71875 17.011719 7.929688 17.15625 C 6 17.222656 4.046875 17.46875 2.367188 18.589844 C 2.246094 18.667969 2.351562 18.871094 2.476562 18.796875 Z M 2.476562 18.796875 " fill-opacity="1" fill-rule="nonzero"/></g><path fill="#d27624" d="M 3.210938 17.445312 C 4.863281 16.777344 6.570312 16.621094 8.320312 16.609375 C 8.414062 16.609375 8.445312 16.429688 8.339844 16.417969 C 6.59375 16.132812 4.773438 16.589844 3.171875 17.363281 C 3.136719 17.382812 3.164062 17.460938 3.210938 17.445312 Z M 3.210938 17.445312 " fill-opacity="1" fill-rule="nonzero"/><g clip-path="url(#2dc2b9c6ee)"><path fill="#d27624" d="M 27.148438 18.511719 C 27.785156 18.414062 28.375 18.078125 28.816406 17.570312 C 29.046875 17.316406 29.238281 17.023438 29.371094 16.699219 C 29.484375 16.445312 29.6875 15.984375 29.523438 15.722656 C 29.445312 15.601562 29.3125 15.582031 29.210938 15.679688 C 29.023438 15.859375 29.050781 16.261719 28.972656 16.515625 C 28.882812 16.808594 28.757812 17.082031 28.597656 17.332031 C 28.234375 17.875 27.71875 18.273438 27.132812 18.449219 C 27.09375 18.457031 27.109375 18.515625 27.148438 18.511719 Z M 27.148438 18.511719 " fill-opacity="1" fill-rule="nonzero"/></g></svg>